# xmcd CD database file
#
# Track frame offsets:
#	150
#	20862
#	39669
#	63470
#	83761
#	105765
#	125852
#	144244
#	165258
#	188850
#	211075
#	229631
#
# Disc length: 3409 seconds
#
# Revision: 0
# Processed by: cddbd v1.5.2PL0 Copyright (c) Steve Scherf et al.
# Submitted via: CDex 1.51
#
DISCID=980d4f0c
DTITLE=Tonya - Dirty Lover
DYEAR=2002
DGENRE=Blues
TTITLE0=Monkey Talk
TTITLE1=Big Mama
TTITLE2=Thank You Baby
TTITLE3=Super Lover
TTITLE4=Why Do I Continue To Love You
TTITLE5=Whip That Thing
TTITLE6=Trouble Makers
TTITLE7=Midnight Train
TTITLE8=The Letter
TTITLE9=Trials And Tribulations
TTITLE10=Dirty Lover
TTITLE11=Monkey Talk (Club Mix)
EXTD=YEAR: 2002
EXTT0=
EXTT1=
EXTT2=
EXTT3=
EXTT4=
EXTT5=
EXTT6=
EXTT7=
EXTT8=
EXTT9=
EXTT10=
EXTT11=
PLAYORDER=
